<svg width="18" height="18" viewBox="0 0 18 18" fill="none" xmlns="http://www.w3.org/2000/svg">
<g clip-path="url(#clip0)">
<path d="M8.91089 3.3352C8.07916 3.92017 7.13651 4.58318 6.63142 5.6801C5.75413 7.59384 8.42657 9.68132 8.5408 9.76924C8.56734 9.78967 8.59912 9.79987 8.6308 9.79987C8.66444 9.79987 8.69812 9.78837 8.72547 9.76545C8.77853 9.72108 8.79357 9.6457 8.76172 9.58432C8.75205 9.56569 7.79277 7.7024 7.82842 6.36568C7.84104 5.90011 8.4926 5.37195 9.18237 4.81279C9.81413 4.30063 10.5303 3.72017 10.9493 3.04112C11.8691 1.54641 10.8467 0.0766628 10.8363 0.0619674C10.7957 0.00494375 10.7207 -0.0156931 10.6567 0.0123969C10.5926 0.0406626 10.5572 0.109886 10.5718 0.178335C10.5739 0.188073 10.7727 1.16001 10.2194 2.16137C9.99156 2.57516 9.49079 2.92735 8.91089 3.3352Z" fill="#DB380E"/>
<path d="M12.415 3.99429C12.4737 3.9501 12.4909 3.86948 12.4555 3.80515C12.4199 3.74081 12.3426 3.71244 12.2739 3.73852C12.1326 3.79224 8.81394 5.07148 8.81394 6.61713C8.81394 7.68261 9.26908 8.24547 9.60141 8.65652C9.73177 8.81774 9.84431 8.95696 9.8814 9.07583C9.98581 9.41835 9.73845 10.0375 9.63442 10.2471C9.60443 10.3074 9.61913 10.3804 9.67014 10.4245C9.6977 10.4483 9.73212 10.4604 9.76657 10.4604C9.7959 10.4604 9.82536 10.4516 9.85081 10.4339C9.90787 10.3943 11.2454 9.44863 11.0055 8.30931C10.9161 7.87626 10.7033 7.55985 10.5155 7.28064C10.2247 6.84804 10.0146 6.53557 10.3333 5.95844C10.7067 5.28526 12.3979 4.00708 12.415 3.99429Z" fill="#DB380E"/>
<path d="M3.77643 10.485C3.71954 10.6554 3.7464 10.8243 3.85402 10.9738C4.21377 11.4733 5.48809 11.7483 7.44236 11.7483C7.44246 11.7483 7.44253 11.7483 7.4426 11.7483C7.7074 11.7483 7.98697 11.7431 8.27331 11.7328C11.3978 11.621 12.5567 10.6475 12.6045 10.6062C12.6566 10.5611 12.6706 10.486 12.6382 10.4252C12.6058 10.3645 12.5359 10.334 12.4692 10.3524C11.3687 10.6528 9.31394 10.7595 7.8887 10.7595C6.29391 10.7595 5.48172 10.6446 5.28288 10.5598C5.3849 10.4197 6.0142 10.1695 6.794 10.0161C6.86854 10.0015 6.91976 9.93264 6.91238 9.85706C6.90499 9.78147 6.8415 9.72382 6.76553 9.72382C6.30842 9.72382 4.01605 9.76052 3.77643 10.485Z" fill="#73A1FB"/>
<path d="M14.2317 9.48236C13.5873 9.48236 12.9762 9.80538 12.9504 9.81905C12.8908 9.85098 12.8606 9.91932 12.8769 9.98499C12.8934 10.0506 12.9523 10.0966 13.0199 10.0967C13.0336 10.0967 14.3946 10.1079 14.5179 10.8855C14.6271 11.5563 13.2301 12.6433 12.6826 13.0056C12.6235 13.0447 12.6005 13.1203 12.628 13.1857C12.6514 13.2413 12.7056 13.2761 12.764 13.2761C12.7742 13.2761 12.7845 13.2751 12.7948 13.2729C12.9247 13.2451 15.9731 12.5733 15.6508 10.7984C15.4542 9.7107 14.7705 9.48236 14.2317 9.48236Z" fill="#73A1FB"/>
<path d="M12.1412 12.7883C12.1518 12.7315 12.1281 12.6736 12.0808 12.6404L11.3499 12.1284C11.3142 12.1035 11.2692 12.0956 11.2274 12.1067C11.2197 12.1086 10.4554 12.3096 9.34561 12.4328C8.90517 12.4822 8.41186 12.5083 7.9189 12.5083C6.80943 12.5083 6.08401 12.3779 5.97837 12.2823C5.96438 12.2555 5.96881 12.2433 5.9713 12.2365C5.9905 12.1831 6.09337 12.1197 6.15967 12.0946C6.2329 12.0675 6.27238 11.988 6.2496 11.9133C6.22689 11.8385 6.14986 11.7945 6.07385 11.8128C5.34063 11.9897 4.98211 12.2371 5.00819 12.5482C5.05453 13.0996 6.33183 13.3827 7.41166 13.4575C7.56695 13.4681 7.73489 13.4735 7.91071 13.4735C7.91081 13.4735 7.91088 13.4735 7.91099 13.4735C9.70656 13.4735 12.0085 12.9101 12.0315 12.9044C12.0877 12.8907 12.1305 12.8453 12.1412 12.7883Z" fill="#73A1FB"/>
<path d="M6.63058 13.9719C6.68595 13.9359 6.71049 13.8674 6.69083 13.8044C6.67125 13.7414 6.6123 13.6999 6.54606 13.7008C6.4478 13.7034 5.58457 13.7424 5.52413 14.292C5.50585 14.4562 5.55289 14.6063 5.66402 14.738C5.97396 15.1053 6.81061 15.3236 8.22133 15.4054C8.38822 15.4154 8.55774 15.4204 8.72527 15.4204C10.5188 15.4204 11.7267 14.8589 11.7773 14.835C11.8263 14.8118 11.8586 14.7636 11.8615 14.7094C11.8644 14.6553 11.8374 14.6039 11.7911 14.5756L10.8674 14.0117C10.8353 13.9922 10.797 13.9857 10.7604 13.9932C10.7546 13.9944 10.168 14.1161 9.28292 14.2362C9.11543 14.259 8.90569 14.2706 8.65959 14.2706C7.77541 14.2706 6.79194 14.1261 6.60333 14.0315C6.60059 14.0139 6.60407 13.9914 6.63058 13.9719Z" fill="#73A1FB"/>
<path d="M7.88938 17.1159C11.9975 17.1125 14.2024 16.3819 14.6272 15.9221C14.7776 15.7595 14.7938 15.6055 14.781 15.5049C14.7495 15.2574 14.524 15.1059 14.4985 15.0895C14.4368 15.0498 14.354 15.0602 14.3059 15.1156C14.258 15.1711 14.2568 15.2522 14.305 15.3076C14.3309 15.341 14.3459 15.3968 14.2701 15.4726C14.1003 15.6312 12.3877 16.1126 9.5361 16.2572C9.14548 16.2775 8.73577 16.2878 8.31843 16.2879C5.76526 16.2879 3.89674 15.9382 3.65145 15.7344C3.74599 15.5986 4.40693 15.3815 5.10981 15.2588C5.18902 15.2449 5.24252 15.1703 5.23025 15.0909C5.21798 15.0114 5.14475 14.9568 5.0647 14.9671C5.04487 14.9698 4.97759 14.9739 4.89968 14.9786C3.73994 15.0494 2.39974 15.2073 2.32982 15.8048C2.30858 15.9869 2.36269 16.1522 2.49069 16.2961C2.8039 16.648 3.70415 17.1159 7.88924 17.1159C7.88931 17.1159 7.88931 17.1159 7.88938 17.1159Z" fill="#73A1FB"/>
<path d="M15.4341 16.0517C15.376 16.0249 15.3074 16.0385 15.2641 16.0852C15.2581 16.0917 14.6404 16.7376 12.7833 17.1168C12.0724 17.2593 10.7378 17.3315 8.81677 17.3315C6.89213 17.3315 5.06073 17.2558 5.04248 17.255C4.96598 17.2513 4.90056 17.3069 4.89015 17.3822C4.87971 17.4575 4.92823 17.5284 5.00209 17.546C5.02114 17.5505 6.94044 18.0001 9.56465 18.0001C10.8233 18.0001 12.0481 17.8979 13.205 17.6962C15.3623 17.318 15.5133 16.2484 15.5187 16.203C15.5262 16.1396 15.4921 16.0786 15.4341 16.0517Z" fill="#73A1FB"/>
</g>
<defs>
<clipPath id="clip0">
<rect width="18" height="18" fill="white"/>
</clipPath>
</defs>
</svg>
