<svg width="14" height="14" viewBox="0 0 14 14" fill="none" xmlns="http://www.w3.org/2000/svg">
<path d="M3.06673 1.84961H5.3694V8.30325C5.3694 11.2119 3.97572 12.227 1.74871 12.227C1.20336 12.227 0.506507 12.1361 0.0519714 11.9846L0.309522 10.1213C0.627667 10.2273 1.0367 10.303 1.49115 10.303C2.46071 10.303 3.06673 9.86368 3.06673 8.28816V1.84961Z" fill="#2196F3"/>
<path d="M7.36868 9.697C7.97464 10.0151 8.94423 10.3333 9.92893 10.3333C10.9894 10.3333 11.5499 9.89398 11.5499 9.21225C11.5499 8.59114 11.0651 8.21243 9.83804 7.78821C8.14128 7.18222 7.02027 6.24296 7.02027 4.74321C7.02027 3.00101 8.48975 1.68298 10.8833 1.68298C12.0499 1.68298 12.883 1.91029 13.4891 2.19809L12.9739 4.0463C12.5801 3.8494 11.8377 3.56153 10.8531 3.56153C9.85321 3.56153 9.36841 4.03116 9.36841 4.54626C9.36841 5.19769 9.92893 5.48549 11.2621 6.00062C13.0648 6.6672 13.8981 7.60646 13.8981 9.06079C13.8981 10.7727 12.5952 12.227 9.79259 12.227C8.62605 12.227 7.47466 11.9089 6.89908 11.5907L7.36868 9.697Z" fill="#2196F3"/>
</svg>
