<svg width="17" height="20" viewBox="0 0 17 20" fill="none" xmlns="http://www.w3.org/2000/svg">
<path d="M8.68176 4.77584C8.67912 4.7488 8.67788 4.72177 8.67788 4.69466C8.67788 4.29791 8.9408 3.97514 9.26386 3.97514C9.59449 3.97514 9.85346 4.29119 9.85346 4.69466C9.85346 4.78602 9.83956 4.87409 9.81366 4.95544C9.91056 4.80322 9.96661 4.61166 9.96661 4.41085C9.96661 3.9284 9.6546 3.53583 9.27118 3.53583C8.88765 3.53583 8.57574 3.92836 8.57574 4.41085C8.57574 4.52945 8.59454 4.64555 8.63173 4.75692C8.64792 4.76302 8.66463 4.76936 8.68176 4.77584Z" fill="white"/>
<path d="M6.95073 4.01303C6.97166 4.00988 6.99083 4.00844 7.0099 4.00844C7.26706 4.00844 7.49762 4.25795 7.55805 4.60165C7.56411 4.63934 7.56793 4.6769 7.56963 4.71394C7.58634 4.70555 7.60332 4.69767 7.62062 4.69037C7.62911 4.63078 7.63324 4.57492 7.63324 4.51882C7.63324 4.07383 7.39477 3.69788 7.11258 3.69788C6.87224 3.69788 6.66972 3.95954 6.612 4.31298C6.67773 4.15178 6.79771 4.03815 6.95073 4.01303Z" fill="white"/>
<path d="M11.7932 12.989C11.8578 12.718 11.9865 12.0261 11.8647 11.1891C11.7108 10.1313 10.205 6.83734 9.94583 6.46954C9.79468 6.49041 9.39301 6.71983 9.06727 6.90587C8.68953 7.12159 8.29883 7.34474 8.03317 7.42054C7.9777 7.43606 7.9197 7.44374 7.85993 7.44374C7.47169 7.44374 7.05148 7.11929 6.78055 6.86372C6.73323 7.35965 6.46583 7.9889 6.17653 8.31232C5.99379 8.51947 5.83047 8.99267 5.67253 9.45035C5.52623 9.87414 5.37497 10.3124 5.18978 10.6015C4.81505 11.1786 4.60011 12.2996 4.87277 12.9371C5.00472 13.2461 5.48362 13.6111 5.90612 13.933C6.42284 14.3268 6.86905 14.6668 6.91828 15.0097C6.97573 15.4151 6.7576 15.6398 6.53947 15.7463L7.0928 16.3721C7.17829 16.385 7.38418 16.4095 7.70684 16.4095C8.08423 16.4095 8.50316 16.3769 8.95166 16.3124C10.0528 16.1512 10.8198 15.2542 10.9714 15.0638C10.9722 14.8115 10.98 13.6888 11.0545 13.3378C11.0834 13.2027 11.1945 12.9764 11.6139 12.9764C11.6791 12.9763 11.7412 12.982 11.7932 12.989Z" fill="white"/>
<path d="M5.14526 6.03996C5.16686 6.12296 5.35799 6.33525 5.65523 6.528C5.69742 6.55477 5.73701 6.58139 5.77418 6.60634C5.93906 6.71709 6.01238 6.76257 6.13091 6.74677C6.30543 6.72415 6.94835 6.33885 7.22292 6.17429L7.29126 6.13338C7.39349 6.07183 7.4752 6.02978 7.54087 5.99599C7.67087 5.92914 7.68262 5.91834 7.68817 5.89395C7.67344 5.85615 7.55206 5.75495 7.31927 5.67586C7.24529 5.64968 7.14031 5.60822 7.01869 5.56024C6.7556 5.45641 6.39522 5.31434 6.24917 5.28877C6.24293 5.28761 6.23707 5.28723 6.23048 5.28723C6.10616 5.28723 5.85499 5.4414 5.60538 5.67083C5.48234 5.78062 5.24216 5.96591 5.14526 6.03996Z" fill="#E69629"/>
<path d="M2.94946 14.5539C2.84133 14.375 2.74787 14.2203 2.69743 14.1433C2.4985 13.8372 2.15328 13.4954 1.98875 13.4954C1.97433 13.4954 1.96674 13.4987 1.96181 13.5016C1.874 13.551 1.80019 13.7016 1.72874 13.8471C1.63004 14.0484 1.51814 14.2767 1.31148 14.4004C1.1586 14.4921 0.92487 14.5422 0.698975 14.5908C0.538221 14.6253 0.161869 14.706 0.144189 14.7814C0.119818 14.8831 0.14249 14.9881 0.171264 15.1211C0.205135 15.2779 0.247394 15.4731 0.211409 15.7128C0.186033 15.8631 0.13989 16.0066 0.0951342 16.1455C0.0329751 16.3386 -0.0375043 16.5577 0.0232681 16.625C0.0982196 16.6904 0.550459 16.7627 0.880634 16.8156C1.29567 16.882 1.72483 16.9507 1.98764 17.0595L2.05729 17.0885C2.52804 17.2841 3.40427 17.6481 3.8469 17.6481C3.88719 17.6481 3.92151 17.6449 3.94921 17.6387C4.02554 17.5879 4.34896 17.3583 4.40973 17.0759C4.49273 16.712 4.15534 16.2876 3.94695 16.0669C3.71565 15.8214 3.27284 15.0888 2.94946 14.5539Z" fill="#E69629"/>
<path d="M12.9551 15.4254L12.9011 15.3974C12.5306 15.2037 12.3358 14.6783 12.3616 14.2822C12.3664 14.2093 12.3572 14.1527 12.3423 14.1093C12.2738 14.2206 12.1761 14.3611 12.06 14.4759C11.8627 14.6709 11.381 14.8814 10.9469 14.8814C10.785 14.8814 10.6375 14.8532 10.5083 14.7975C10.075 14.6107 10.016 14.0751 10.0149 13.8066C10.0084 13.8084 10.0026 13.8104 9.99736 13.8129C9.97087 13.9054 9.99652 14.2174 10.0138 14.4274C10.0231 14.5398 10.0326 14.656 10.0383 14.7626C10.0628 15.2323 9.91145 16.029 9.78009 16.6147C9.65539 17.1881 9.88746 17.5901 10.1692 17.6769C10.1945 17.6849 10.223 17.6888 10.2542 17.6888C10.5138 17.6888 10.9437 17.4232 11.3237 17.0279C11.5937 16.7473 12.1946 16.444 12.7248 16.1764C13.0237 16.0255 13.3328 15.8695 13.4206 15.7901C13.4402 15.7721 13.4431 15.7621 13.4432 15.762C13.4376 15.6758 13.087 15.4939 12.9551 15.4254Z" fill="#E69629"/>
<mask id="path-7-outside-1" maskUnits="userSpaceOnUse" x="-0.013855" y="0" width="17" height="20" fill="black">
<rect fill="white" x="-0.013855" width="17" height="20"/>
<path d="M15.6751 15.0872C15.1546 14.8766 14.932 14.5969 14.9535 14.1796C14.9757 13.6926 14.6961 13.336 14.5634 13.195C14.6436 12.8922 14.8779 11.8447 14.5636 10.9348C14.2259 9.96087 13.1946 8.47348 12.1306 7.01138C11.695 6.41094 11.6744 5.75821 11.6505 5.00243C11.6277 4.28158 11.602 3.4645 11.1953 2.55616C10.7531 1.56713 9.86585 1 8.76089 1C8.10355 1 7.42881 1.20307 6.90959 1.55709C5.84633 2.28243 5.98688 3.86385 6.07989 4.91022C6.09265 5.05353 6.10461 5.18888 6.11161 5.30443C6.17353 6.32931 6.11719 6.86951 6.04352 7.03369C5.99586 7.14098 5.76123 7.4463 5.5129 7.76962C5.25608 8.104 4.96491 8.48293 4.72625 8.83606C4.44149 9.26102 4.21161 9.91053 3.98932 10.5386C3.82666 10.9982 3.67301 11.4323 3.52346 11.6919C3.23998 12.191 3.31053 12.6564 3.36939 12.8715C3.26206 12.9451 3.10703 13.0903 2.97616 13.3638C2.81797 13.6974 2.49701 13.8766 1.82962 14.0035C1.52292 14.0655 1.31144 14.193 1.20085 14.3824C1.03993 14.658 1.1276 15.0043 1.20755 15.241C1.32569 15.5888 1.25206 15.809 1.11821 16.2089C1.08735 16.3011 1.05237 16.4056 1.01694 16.5208C0.961127 16.7027 0.981269 16.868 1.07664 17.0122C1.32867 17.3931 2.06419 17.5274 2.82133 17.6158C3.2734 17.6688 3.76818 17.8475 4.24673 18.0204C4.71561 18.1898 5.20047 18.365 5.64117 18.4181C5.70815 18.4264 5.7745 18.4306 5.83846 18.4306C6.50388 18.4306 6.80452 17.9942 6.89985 17.8149C7.13885 17.7667 7.96322 17.6123 8.81285 17.5915C9.66114 17.5676 10.4819 17.7332 10.7144 17.7846C10.7875 17.9229 10.9802 18.2388 11.2873 18.4016C11.4562 18.4928 11.6911 18.5451 11.9317 18.5451C12.1887 18.5451 12.6777 18.485 13.0647 18.0826C13.4506 17.6784 14.415 17.1622 15.1191 16.7853C15.2763 16.7013 15.4233 16.6225 15.5522 16.5516C15.9477 16.3348 16.1636 16.0252 16.1443 15.7019C16.1282 15.4334 15.9485 15.1979 15.6751 15.0872ZM9.27109 3.53564C9.65455 3.53564 9.96653 3.92818 9.96653 4.41066C9.96653 4.61144 9.91047 4.803 9.81357 4.95525C9.8394 4.8739 9.85337 4.78583 9.85337 4.69447C9.85337 4.291 9.59441 3.97495 9.26378 3.97495C8.94067 3.97495 8.67779 4.29772 8.67779 4.69447C8.67779 4.72158 8.67914 4.74861 8.68167 4.77565C8.66455 4.76921 8.64787 4.76283 8.63158 4.75673C8.59438 4.64536 8.57559 4.52926 8.57559 4.41066C8.57562 3.92821 8.88756 3.53564 9.27109 3.53564ZM8.09183 5.28908C8.23792 5.31458 8.59819 5.45672 8.86135 5.56055C8.98297 5.60853 9.08805 5.64999 9.16192 5.67617C9.39472 5.75526 9.51612 5.85645 9.53082 5.89425C9.52531 5.91868 9.51353 5.92944 9.38352 5.9963C9.31786 6.03005 9.23618 6.07207 9.13391 6.13368L9.06558 6.17459C8.79101 6.33918 8.1481 6.72452 7.97358 6.74707C7.85502 6.76283 7.7817 6.71733 7.61685 6.60664C7.57965 6.58163 7.5401 6.55503 7.49791 6.52831C7.2007 6.33548 7.00951 6.12326 6.98794 6.04027C7.08484 5.96625 7.32502 5.78093 7.44798 5.67117C7.69759 5.44175 7.94876 5.28757 8.07308 5.28757C8.07967 5.28747 8.08563 5.28792 8.09183 5.28908ZM7.11226 3.69769C7.39453 3.69769 7.63294 4.07361 7.63294 4.51864C7.63294 4.57477 7.62885 4.63059 7.62032 4.69019C7.60302 4.69748 7.58603 4.70544 7.56932 4.71376C7.56762 4.67665 7.56374 4.63916 7.55774 4.60147C7.49735 4.25776 7.26674 4.00826 7.00958 4.00826C6.99054 4.00826 6.97141 4.0097 6.9504 4.01285C6.79741 4.03804 6.67739 4.1516 6.61163 4.31273C6.66942 3.95932 6.87198 3.69769 7.11226 3.69769ZM6.25243 17.0759C6.19166 17.3583 5.86821 17.588 5.79191 17.6388C5.76421 17.6449 5.72992 17.6481 5.6896 17.6481C5.24696 17.6481 4.37074 17.2841 3.89998 17.0886L3.83033 17.0596C3.56745 16.9507 3.13833 16.8821 2.72332 16.8157C2.39311 16.7628 1.94094 16.6905 1.86596 16.6251C1.80518 16.5577 1.87566 16.3387 1.93782 16.1455C1.98258 16.0066 2.02879 15.8631 2.0541 15.7128C2.09001 15.4732 2.04782 15.2779 2.01395 15.1211C1.98521 14.9881 1.96251 14.8831 1.98688 14.7814C2.00456 14.7061 2.38091 14.6254 2.54166 14.5908C2.76763 14.5423 3.00136 14.4922 3.15417 14.4005C3.36083 14.2767 3.47274 14.0485 3.57144 13.8472C3.64289 13.7016 3.71669 13.551 3.80451 13.5016C3.80946 13.4987 3.81702 13.4954 3.83144 13.4954C3.99598 13.4954 4.3412 13.8372 4.54012 14.1433C4.59056 14.2204 4.68403 14.375 4.79216 14.554C5.11557 15.0889 5.55838 15.8214 5.78965 16.0669C5.99804 16.2876 6.33539 16.712 6.25243 17.0759ZM11.0545 13.3376C10.9801 13.6886 10.9722 14.8113 10.9714 15.0636C10.8197 15.254 10.0528 16.151 8.95163 16.3122C8.5031 16.3766 8.08428 16.4093 7.70681 16.4093C7.38416 16.4093 7.17827 16.3847 7.09278 16.3719L6.53945 15.7461C6.75758 15.6396 6.97571 15.4149 6.91826 15.0095C6.86903 14.6666 6.42282 14.3266 5.9061 13.9328C5.48361 13.6109 5.0047 13.246 4.87276 12.9369C4.6001 12.2995 4.81504 11.1785 5.18976 10.6013C5.37496 10.3122 5.52621 9.87393 5.67251 9.45014C5.83046 8.99246 5.99381 8.51923 6.17651 8.31211C6.46581 7.98869 6.73317 7.35943 6.78053 6.86351C7.05142 7.11908 7.47166 7.44353 7.85991 7.44353C7.91967 7.44353 7.97771 7.43582 8.03314 7.42033C8.29877 7.34449 8.68944 7.12138 9.06725 6.90566C9.39298 6.71962 9.79465 6.4902 9.9458 6.46933C10.2049 6.83716 11.7108 10.1311 11.8647 11.1889C11.9864 12.0259 11.8578 12.7178 11.7931 12.9888C11.7411 12.9818 11.6791 12.9761 11.6139 12.9761C11.1944 12.9762 11.0834 13.2025 11.0545 13.3376ZM15.2634 15.7907C15.1756 15.87 14.8665 16.026 14.5676 16.1769C14.0373 16.4445 13.4363 16.7478 13.1664 17.0284C12.7864 17.4238 12.3566 17.6893 12.097 17.6893C12.0658 17.6893 12.0373 17.6854 12.012 17.6774C11.7302 17.5906 11.4982 17.1886 11.6229 16.6152C11.7542 16.0295 11.9055 15.2329 11.881 14.7631C11.8754 14.6565 11.8658 14.5403 11.8566 14.428C11.8393 14.218 11.8136 13.906 11.8401 13.8134C11.8453 13.8109 11.8512 13.8089 11.8576 13.8071C11.8587 14.0756 11.9177 14.6113 12.3511 14.798C12.4802 14.8537 12.6278 14.8819 12.7897 14.8819C13.2238 14.8819 13.7054 14.6715 13.9027 14.4764C14.0189 14.3617 14.1166 14.2211 14.185 14.1099C14.1999 14.1532 14.2092 14.2098 14.2043 14.2827C14.1785 14.6788 14.3733 15.2042 14.7438 15.3978L14.7978 15.4259C14.9298 15.4943 15.2804 15.6763 15.286 15.7626C15.286 15.7626 15.2829 15.7727 15.2634 15.7907Z"/>
</mask>
<path d="M15.6751 15.0872C15.1546 14.8766 14.932 14.5969 14.9535 14.1796C14.9757 13.6926 14.6961 13.336 14.5634 13.195C14.6436 12.8922 14.8779 11.8447 14.5636 10.9348C14.2259 9.96087 13.1946 8.47348 12.1306 7.01138C11.695 6.41094 11.6744 5.75821 11.6505 5.00243C11.6277 4.28158 11.602 3.4645 11.1953 2.55616C10.7531 1.56713 9.86585 1 8.76089 1C8.10355 1 7.42881 1.20307 6.90959 1.55709C5.84633 2.28243 5.98688 3.86385 6.07989 4.91022C6.09265 5.05353 6.10461 5.18888 6.11161 5.30443C6.17353 6.32931 6.11719 6.86951 6.04352 7.03369C5.99586 7.14098 5.76123 7.4463 5.5129 7.76962C5.25608 8.104 4.96491 8.48293 4.72625 8.83606C4.44149 9.26102 4.21161 9.91053 3.98932 10.5386C3.82666 10.9982 3.67301 11.4323 3.52346 11.6919C3.23998 12.191 3.31053 12.6564 3.36939 12.8715C3.26206 12.9451 3.10703 13.0903 2.97616 13.3638C2.81797 13.6974 2.49701 13.8766 1.82962 14.0035C1.52292 14.0655 1.31144 14.193 1.20085 14.3824C1.03993 14.658 1.1276 15.0043 1.20755 15.241C1.32569 15.5888 1.25206 15.809 1.11821 16.2089C1.08735 16.3011 1.05237 16.4056 1.01694 16.5208C0.961127 16.7027 0.981269 16.868 1.07664 17.0122C1.32867 17.3931 2.06419 17.5274 2.82133 17.6158C3.2734 17.6688 3.76818 17.8475 4.24673 18.0204C4.71561 18.1898 5.20047 18.365 5.64117 18.4181C5.70815 18.4264 5.7745 18.4306 5.83846 18.4306C6.50388 18.4306 6.80452 17.9942 6.89985 17.8149C7.13885 17.7667 7.96322 17.6123 8.81285 17.5915C9.66114 17.5676 10.4819 17.7332 10.7144 17.7846C10.7875 17.9229 10.9802 18.2388 11.2873 18.4016C11.4562 18.4928 11.6911 18.5451 11.9317 18.5451C12.1887 18.5451 12.6777 18.485 13.0647 18.0826C13.4506 17.6784 14.415 17.1622 15.1191 16.7853C15.2763 16.7013 15.4233 16.6225 15.5522 16.5516C15.9477 16.3348 16.1636 16.0252 16.1443 15.7019C16.1282 15.4334 15.9485 15.1979 15.6751 15.0872ZM9.27109 3.53564C9.65455 3.53564 9.96653 3.92818 9.96653 4.41066C9.96653 4.61144 9.91047 4.803 9.81357 4.95525C9.8394 4.8739 9.85337 4.78583 9.85337 4.69447C9.85337 4.291 9.59441 3.97495 9.26378 3.97495C8.94067 3.97495 8.67779 4.29772 8.67779 4.69447C8.67779 4.72158 8.67914 4.74861 8.68167 4.77565C8.66455 4.76921 8.64787 4.76283 8.63158 4.75673C8.59438 4.64536 8.57559 4.52926 8.57559 4.41066C8.57562 3.92821 8.88756 3.53564 9.27109 3.53564ZM8.09183 5.28908C8.23792 5.31458 8.59819 5.45672 8.86135 5.56055C8.98297 5.60853 9.08805 5.64999 9.16192 5.67617C9.39472 5.75526 9.51612 5.85645 9.53082 5.89425C9.52531 5.91868 9.51353 5.92944 9.38352 5.9963C9.31786 6.03005 9.23618 6.07207 9.13391 6.13368L9.06558 6.17459C8.79101 6.33918 8.1481 6.72452 7.97358 6.74707C7.85502 6.76283 7.7817 6.71733 7.61685 6.60664C7.57965 6.58163 7.5401 6.55503 7.49791 6.52831C7.2007 6.33548 7.00951 6.12326 6.98794 6.04027C7.08484 5.96625 7.32502 5.78093 7.44798 5.67117C7.69759 5.44175 7.94876 5.28757 8.07308 5.28757C8.07967 5.28747 8.08563 5.28792 8.09183 5.28908ZM7.11226 3.69769C7.39453 3.69769 7.63294 4.07361 7.63294 4.51864C7.63294 4.57477 7.62885 4.63059 7.62032 4.69019C7.60302 4.69748 7.58603 4.70544 7.56932 4.71376C7.56762 4.67665 7.56374 4.63916 7.55774 4.60147C7.49735 4.25776 7.26674 4.00826 7.00958 4.00826C6.99054 4.00826 6.97141 4.0097 6.9504 4.01285C6.79741 4.03804 6.67739 4.1516 6.61163 4.31273C6.66942 3.95932 6.87198 3.69769 7.11226 3.69769ZM6.25243 17.0759C6.19166 17.3583 5.86821 17.588 5.79191 17.6388C5.76421 17.6449 5.72992 17.6481 5.6896 17.6481C5.24696 17.6481 4.37074 17.2841 3.89998 17.0886L3.83033 17.0596C3.56745 16.9507 3.13833 16.8821 2.72332 16.8157C2.39311 16.7628 1.94094 16.6905 1.86596 16.6251C1.80518 16.5577 1.87566 16.3387 1.93782 16.1455C1.98258 16.0066 2.02879 15.8631 2.0541 15.7128C2.09001 15.4732 2.04782 15.2779 2.01395 15.1211C1.98521 14.9881 1.96251 14.8831 1.98688 14.7814C2.00456 14.7061 2.38091 14.6254 2.54166 14.5908C2.76763 14.5423 3.00136 14.4922 3.15417 14.4005C3.36083 14.2767 3.47274 14.0485 3.57144 13.8472C3.64289 13.7016 3.71669 13.551 3.80451 13.5016C3.80946 13.4987 3.81702 13.4954 3.83144 13.4954C3.99598 13.4954 4.3412 13.8372 4.54012 14.1433C4.59056 14.2204 4.68403 14.375 4.79216 14.554C5.11557 15.0889 5.55838 15.8214 5.78965 16.0669C5.99804 16.2876 6.33539 16.712 6.25243 17.0759ZM11.0545 13.3376C10.9801 13.6886 10.9722 14.8113 10.9714 15.0636C10.8197 15.254 10.0528 16.151 8.95163 16.3122C8.5031 16.3766 8.08428 16.4093 7.70681 16.4093C7.38416 16.4093 7.17827 16.3847 7.09278 16.3719L6.53945 15.7461C6.75758 15.6396 6.97571 15.4149 6.91826 15.0095C6.86903 14.6666 6.42282 14.3266 5.9061 13.9328C5.48361 13.6109 5.0047 13.246 4.87276 12.9369C4.6001 12.2995 4.81504 11.1785 5.18976 10.6013C5.37496 10.3122 5.52621 9.87393 5.67251 9.45014C5.83046 8.99246 5.99381 8.51923 6.17651 8.31211C6.46581 7.98869 6.73317 7.35943 6.78053 6.86351C7.05142 7.11908 7.47166 7.44353 7.85991 7.44353C7.91967 7.44353 7.97771 7.43582 8.03314 7.42033C8.29877 7.34449 8.68944 7.12138 9.06725 6.90566C9.39298 6.71962 9.79465 6.4902 9.9458 6.46933C10.2049 6.83716 11.7108 10.1311 11.8647 11.1889C11.9864 12.0259 11.8578 12.7178 11.7931 12.9888C11.7411 12.9818 11.6791 12.9761 11.6139 12.9761C11.1944 12.9762 11.0834 13.2025 11.0545 13.3376ZM15.2634 15.7907C15.1756 15.87 14.8665 16.026 14.5676 16.1769C14.0373 16.4445 13.4363 16.7478 13.1664 17.0284C12.7864 17.4238 12.3566 17.6893 12.097 17.6893C12.0658 17.6893 12.0373 17.6854 12.012 17.6774C11.7302 17.5906 11.4982 17.1886 11.6229 16.6152C11.7542 16.0295 11.9055 15.2329 11.881 14.7631C11.8754 14.6565 11.8658 14.5403 11.8566 14.428C11.8393 14.218 11.8136 13.906 11.8401 13.8134C11.8453 13.8109 11.8512 13.8089 11.8576 13.8071C11.8587 14.0756 11.9177 14.6113 12.3511 14.798C12.4802 14.8537 12.6278 14.8819 12.7897 14.8819C13.2238 14.8819 13.7054 14.6715 13.9027 14.4764C14.0189 14.3617 14.1166 14.2211 14.185 14.1099C14.1999 14.1532 14.2092 14.2098 14.2043 14.2827C14.1785 14.6788 14.3733 15.2042 14.7438 15.3978L14.7978 15.4259C14.9298 15.4943 15.2804 15.6763 15.286 15.7626C15.286 15.7626 15.2829 15.7727 15.2634 15.7907Z" fill="black"/>
<path d="M15.6751 15.0872C15.1546 14.8766 14.932 14.5969 14.9535 14.1796C14.9757 13.6926 14.6961 13.336 14.5634 13.195C14.6436 12.8922 14.8779 11.8447 14.5636 10.9348C14.2259 9.96087 13.1946 8.47348 12.1306 7.01138C11.695 6.41094 11.6744 5.75821 11.6505 5.00243C11.6277 4.28158 11.602 3.4645 11.1953 2.55616C10.7531 1.56713 9.86585 1 8.76089 1C8.10355 1 7.42881 1.20307 6.90959 1.55709C5.84633 2.28243 5.98688 3.86385 6.07989 4.91022C6.09265 5.05353 6.10461 5.18888 6.11161 5.30443C6.17353 6.32931 6.11719 6.86951 6.04352 7.03369C5.99586 7.14098 5.76123 7.4463 5.5129 7.76962C5.25608 8.104 4.96491 8.48293 4.72625 8.83606C4.44149 9.26102 4.21161 9.91053 3.98932 10.5386C3.82666 10.9982 3.67301 11.4323 3.52346 11.6919C3.23998 12.191 3.31053 12.6564 3.36939 12.8715C3.26206 12.9451 3.10703 13.0903 2.97616 13.3638C2.81797 13.6974 2.49701 13.8766 1.82962 14.0035C1.52292 14.0655 1.31144 14.193 1.20085 14.3824C1.03993 14.658 1.1276 15.0043 1.20755 15.241C1.32569 15.5888 1.25206 15.809 1.11821 16.2089C1.08735 16.3011 1.05237 16.4056 1.01694 16.5208C0.961127 16.7027 0.981269 16.868 1.07664 17.0122C1.32867 17.3931 2.06419 17.5274 2.82133 17.6158C3.2734 17.6688 3.76818 17.8475 4.24673 18.0204C4.71561 18.1898 5.20047 18.365 5.64117 18.4181C5.70815 18.4264 5.7745 18.4306 5.83846 18.4306C6.50388 18.4306 6.80452 17.9942 6.89985 17.8149C7.13885 17.7667 7.96322 17.6123 8.81285 17.5915C9.66114 17.5676 10.4819 17.7332 10.7144 17.7846C10.7875 17.9229 10.9802 18.2388 11.2873 18.4016C11.4562 18.4928 11.6911 18.5451 11.9317 18.5451C12.1887 18.5451 12.6777 18.485 13.0647 18.0826C13.4506 17.6784 14.415 17.1622 15.1191 16.7853C15.2763 16.7013 15.4233 16.6225 15.5522 16.5516C15.9477 16.3348 16.1636 16.0252 16.1443 15.7019C16.1282 15.4334 15.9485 15.1979 15.6751 15.0872ZM9.27109 3.53564C9.65455 3.53564 9.96653 3.92818 9.96653 4.41066C9.96653 4.61144 9.91047 4.803 9.81357 4.95525C9.8394 4.8739 9.85337 4.78583 9.85337 4.69447C9.85337 4.291 9.59441 3.97495 9.26378 3.97495C8.94067 3.97495 8.67779 4.29772 8.67779 4.69447C8.67779 4.72158 8.67914 4.74861 8.68167 4.77565C8.66455 4.76921 8.64787 4.76283 8.63158 4.75673C8.59438 4.64536 8.57559 4.52926 8.57559 4.41066C8.57562 3.92821 8.88756 3.53564 9.27109 3.53564ZM8.09183 5.28908C8.23792 5.31458 8.59819 5.45672 8.86135 5.56055C8.98297 5.60853 9.08805 5.64999 9.16192 5.67617C9.39472 5.75526 9.51612 5.85645 9.53082 5.89425C9.52531 5.91868 9.51353 5.92944 9.38352 5.9963C9.31786 6.03005 9.23618 6.07207 9.13391 6.13368L9.06558 6.17459C8.79101 6.33918 8.1481 6.72452 7.97358 6.74707C7.85502 6.76283 7.7817 6.71733 7.61685 6.60664C7.57965 6.58163 7.5401 6.55503 7.49791 6.52831C7.2007 6.33548 7.00951 6.12326 6.98794 6.04027C7.08484 5.96625 7.32502 5.78093 7.44798 5.67117C7.69759 5.44175 7.94876 5.28757 8.07308 5.28757C8.07967 5.28747 8.08563 5.28792 8.09183 5.28908ZM7.11226 3.69769C7.39453 3.69769 7.63294 4.07361 7.63294 4.51864C7.63294 4.57477 7.62885 4.63059 7.62032 4.69019C7.60302 4.69748 7.58603 4.70544 7.56932 4.71376C7.56762 4.67665 7.56374 4.63916 7.55774 4.60147C7.49735 4.25776 7.26674 4.00826 7.00958 4.00826C6.99054 4.00826 6.97141 4.0097 6.9504 4.01285C6.79741 4.03804 6.67739 4.1516 6.61163 4.31273C6.66942 3.95932 6.87198 3.69769 7.11226 3.69769ZM6.25243 17.0759C6.19166 17.3583 5.86821 17.588 5.79191 17.6388C5.76421 17.6449 5.72992 17.6481 5.6896 17.6481C5.24696 17.6481 4.37074 17.2841 3.89998 17.0886L3.83033 17.0596C3.56745 16.9507 3.13833 16.8821 2.72332 16.8157C2.39311 16.7628 1.94094 16.6905 1.86596 16.6251C1.80518 16.5577 1.87566 16.3387 1.93782 16.1455C1.98258 16.0066 2.02879 15.8631 2.0541 15.7128C2.09001 15.4732 2.04782 15.2779 2.01395 15.1211C1.98521 14.9881 1.96251 14.8831 1.98688 14.7814C2.00456 14.7061 2.38091 14.6254 2.54166 14.5908C2.76763 14.5423 3.00136 14.4922 3.15417 14.4005C3.36083 14.2767 3.47274 14.0485 3.57144 13.8472C3.64289 13.7016 3.71669 13.551 3.80451 13.5016C3.80946 13.4987 3.81702 13.4954 3.83144 13.4954C3.99598 13.4954 4.3412 13.8372 4.54012 14.1433C4.59056 14.2204 4.68403 14.375 4.79216 14.554C5.11557 15.0889 5.55838 15.8214 5.78965 16.0669C5.99804 16.2876 6.33539 16.712 6.25243 17.0759ZM11.0545 13.3376C10.9801 13.6886 10.9722 14.8113 10.9714 15.0636C10.8197 15.254 10.0528 16.151 8.95163 16.3122C8.5031 16.3766 8.08428 16.4093 7.70681 16.4093C7.38416 16.4093 7.17827 16.3847 7.09278 16.3719L6.53945 15.7461C6.75758 15.6396 6.97571 15.4149 6.91826 15.0095C6.86903 14.6666 6.42282 14.3266 5.9061 13.9328C5.48361 13.6109 5.0047 13.246 4.87276 12.9369C4.6001 12.2995 4.81504 11.1785 5.18976 10.6013C5.37496 10.3122 5.52621 9.87393 5.67251 9.45014C5.83046 8.99246 5.99381 8.51923 6.17651 8.31211C6.46581 7.98869 6.73317 7.35943 6.78053 6.86351C7.05142 7.11908 7.47166 7.44353 7.85991 7.44353C7.91967 7.44353 7.97771 7.43582 8.03314 7.42033C8.29877 7.34449 8.68944 7.12138 9.06725 6.90566C9.39298 6.71962 9.79465 6.4902 9.9458 6.46933C10.2049 6.83716 11.7108 10.1311 11.8647 11.1889C11.9864 12.0259 11.8578 12.7178 11.7931 12.9888C11.7411 12.9818 11.6791 12.9761 11.6139 12.9761C11.1944 12.9762 11.0834 13.2025 11.0545 13.3376ZM15.2634 15.7907C15.1756 15.87 14.8665 16.026 14.5676 16.1769C14.0373 16.4445 13.4363 16.7478 13.1664 17.0284C12.7864 17.4238 12.3566 17.6893 12.097 17.6893C12.0658 17.6893 12.0373 17.6854 12.012 17.6774C11.7302 17.5906 11.4982 17.1886 11.6229 16.6152C11.7542 16.0295 11.9055 15.2329 11.881 14.7631C11.8754 14.6565 11.8658 14.5403 11.8566 14.428C11.8393 14.218 11.8136 13.906 11.8401 13.8134C11.8453 13.8109 11.8512 13.8089 11.8576 13.8071C11.8587 14.0756 11.9177 14.6113 12.3511 14.798C12.4802 14.8537 12.6278 14.8819 12.7897 14.8819C13.2238 14.8819 13.7054 14.6715 13.9027 14.4764C14.0189 14.3617 14.1166 14.2211 14.185 14.1099C14.1999 14.1532 14.2092 14.2098 14.2043 14.2827C14.1785 14.6788 14.3733 15.2042 14.7438 15.3978L14.7978 15.4259C14.9298 15.4943 15.2804 15.6763 15.286 15.7626C15.286 15.7626 15.2829 15.7727 15.2634 15.7907Z" stroke="white" mask="url(#path-7-outside-1)"/>
</svg>
